<svg xml:space="preserve" style="max-height: 500px" viewBox="22.832432432432434 11.007999999999996 467.718918918919 478.3104" y="0px" x="0px" version="1.1" xmlns:xlink="http://www.w3.org/1999/xlink" xmlns="http://www.w3.org/2000/svg" width="467.718918918919" height="478.3104"><style type="text/css">
	.st0{fill-rule:evenodd;clip-rule:evenodd;}
</style><path d="M45.77,383.07l97.37,86.85c5.36,4.76,13.01,3.15,20.18-1.73c8.62-5.84,16.36-16.07,19.45-26.05  c2.72-8.7,1.76-17.23-5.73-21.97L69.95,352.45c-7.11-4.51-16.3,3.03-20.78,8.99c-2.15,2.83-3.86,5.95-4.9,9.04  C42.57,375.47,42.65,380.29,45.77,383.07L45.77,383.07z M327.56,269.2c13.72,8.59,12.05,22.96,1.47,34.16  c-10.77,11.4-32.4,21.8-62.7,24.69c2.21,0.79,5.7,0.88,8.08,1.05c32.03,2.24,64.18-6.21,90.57-34.87c6.21-6.75,12.1-14.6,17.6-23.67  C359.9,274.64,343.46,273.4,327.56,269.2L327.56,269.2z M148.95,278.27c23.64-9.78,48.67-10.49,76.08-11.28  c15.79-0.45,32.37-0.94,49.89-3.26c13.8-1.84,25.14-1.87,34.21-0.57c-18.48-6.94-31.61-13.04-52.19-19.76  c-4.59-21.4,11.45-59.75,14.74-82.49c0.74-5.19-7.17-6.32-7.91-1.11c-3.37,23.36-18.03,56.89-15.34,80.9  c-42.95-13.01-83.54-10.29-120.02,22.11C132.65,266.34,139.74,271.87,148.95,278.27L148.95,278.27z M85.31,352.74l86.88,54.94  c23.95-14.74,65.31-11.37,99.92-8.59c14.46,1.16,27.69,2.24,37.53,1.81c54.43-2.27,114.6-37.16,150.66-77.41  c6.43-7.17,8.96-14.26,8.48-19.76c-0.4-4.42-2.78-7.82-7.09-8.99c-9.21-2.52-20.01,5.53-28.86,11.14  c-42.52,27.07-98.42,62.62-186.63,22.62h0.03c-3.91-1.76-2.64-7.65,1.64-7.63c37.62,0.28,63.72-10.72,75.34-22.99  c6.04-6.41,9.21-14.46,2.18-20.41c-7.26-6.18-23.27-9.33-49.44-5.84C197.45,282.04,140.11,255.79,85.31,352.74L85.31,352.74z   M184.18,184.3c-4.9-1.84-2.1-9.33,2.81-7.48c18.82,7.11,40.14,16.58,56.38,30.13c-23.13-81.61-104.88-72.09-116.45-46.06  c-2.75,6.12-1.42,13.52,5.81,21.26c6.8,7.26,22.93,16.16,46.71,23.22c17.21,5.13,38.27,9.24,62.5,10.97  C226.11,201.59,203.66,191.67,184.18,184.3L184.18,184.3z M319.31,190.62c4.93-1.84,7.74,5.61,2.81,7.48  c-19.7,7.43-40.59,17.74-56.21,31.89c23.58-1.79,44.14-5.81,60.97-10.83c23.75-7.09,39.91-15.96,46.69-23.22  c23.5-25.09-15.82-46.74-52.41-37.67c-23.9,5.92-48.05,24.77-58.65,64.09C278.69,208.34,299.3,198.22,319.31,190.62L319.31,190.62z   M271.8,152.81C309.45,79,244.87,29.84,218.45,40.73c-6.21,2.55-10.35,8.82-10.46,19.39c-0.08,9.95,5.47,27.52,17.8,49.04  c8.87,15.51,21.17,32.85,37.33,50.68c2.38-21.69-0.28-42.77-14.74-68.74c-2.55-4.59,4.42-8.45,6.97-3.88  C269.17,112.05,272.94,132.49,271.8,152.81L271.8,152.81z"/><text fill="#000000" font-family="Arbeit Regular, Helvetica, Arial-Unicode, Arial, Sans-serif" font-weight="bold" font-size="25.6" y="601.6" x="0.0">Created by herv@rtistics</text><text fill="#000000" font-family="Arbeit Regular, Helvetica, Arial-Unicode, Arial, Sans-serif" font-weight="bold" font-size="25.6" y="627.2" x="0.0">from Noun Project</text></svg>